<svg width="1024" height="866" viewBox="0 0 1024 866" fill="none" xmlns="http://www.w3.org/2000/svg">
<path fill-rule="evenodd" clip-rule="evenodd" d="M0.0626099 395.905C3.29054 224.157 209.877 206.334 209.877 206.334C209.877 206.334 229.245 10.2824 408.394 0.560769C587.544 -9.16084 613.367 110.739 613.367 110.739C613.367 110.739 739.256 16.7634 836.094 110.739C932.931 204.714 887.74 301.93 887.74 301.93C887.74 301.93 1068.5 386.184 1013.63 543.349C958.755 700.515 832.866 671.35 832.866 671.35C832.866 671.35 832.866 802.591 673.084 852.82C513.302 903.048 422.92 783.148 422.92 783.148C422.92 783.148 316.399 870.643 192.124 794.49C84.1302 728.315 110.903 625.759 118.04 598.417C118.916 595.064 119.496 592.842 119.496 591.957C119.496 590.516 115.616 588.82 109.256 586.037C79.8503 573.174 -2.59129 537.111 0.0626099 395.905ZM566.562 381.323C563.692 336.272 581.314 283.024 626.279 282.487C671.573 281.946 688.804 335.864 687.609 381.323C686.543 421.894 669.682 467.532 629.507 472.058C586.161 476.941 569.346 425.022 566.562 381.323ZM380.957 282.487C333.018 282.293 316.623 343.326 322.854 391.045C328.065 430.946 344.103 473.065 384.185 473.678C427.012 474.333 442.88 424.31 443.901 381.323C444.99 335.524 426.591 282.672 380.957 282.487Z" fill="#FF6B81"/>
</svg>
