<svg width="746" height="628" viewBox="0 0 746 628" fill="none" xmlns="http://www.w3.org/2000/svg">
<path fill-rule="evenodd" clip-rule="evenodd" d="M152.899 149.733C152.899 149.733 2.39721 162.667 0.0456123 287.301C-1.88779 389.771 58.1722 415.941 79.5947 425.276L79.595 425.276C84.2285 427.295 87.0544 428.527 87.0544 429.572C87.0544 430.214 86.6318 431.827 85.9942 434.26C80.7943 454.101 61.2902 528.524 139.965 576.546C230.501 631.809 308.104 568.316 308.104 568.316C308.104 568.316 373.948 655.325 490.352 618.875C606.756 582.425 606.756 487.186 606.756 487.186C606.756 487.186 698.468 508.35 738.445 394.298C778.422 280.246 646.733 219.105 646.733 219.105C646.733 219.105 679.655 148.557 609.107 80.361C538.56 12.1649 446.848 80.361 446.848 80.361C446.848 80.361 428.035 -6.64785 297.522 0.406939C167.008 7.46173 152.899 149.733 152.899 149.733ZM221.5 317C221.5 317 221.011 309.197 224 306.5C227.554 303.293 237.5 305 237.5 305C237.5 305 258.5 333 297.5 331.5C336.5 330 354 296 354 296C354 296 361.481 291.535 366 294C371.5 297 373 303.5 373 303.5C373 303.5 353.5 353.5 296.5 353.5C239.5 353.5 221.5 317 221.5 317ZM414.761 292.016C411.915 294.862 412.802 302.63 412.802 302.63C412.802 302.63 432.648 338.16 489.574 335.24C546.499 332.32 563.412 281.387 563.412 281.387C563.412 281.387 561.581 274.972 555.934 272.258C551.295 270.028 544.053 274.87 544.053 274.87C544.053 274.87 528.317 309.722 489.445 313.218C450.573 316.714 428.167 289.826 428.167 289.826C428.167 289.826 418.146 288.631 414.761 292.016Z" fill="#FF6B81"/>
</svg>
